<svg width="358.4" height="72.401" viewBox="0 0 358.4 72.401" xmlns="http://www.w3.org/2000/svg"><g id="svgGroup" stroke-linecap="round" fill-rule="evenodd" font-size="9pt" stroke="#ffffff" stroke-width="0.25mm" fill="#ffffff" style="stroke:#ffffff;stroke-width:0.25mm;fill:#ffffff"><path d="M 295.2 71.201 L 253.2 71.201 L 253.2 1.201 L 295.2 1.201 L 295.2 9.401 L 262.7 9.401 L 262.7 30.701 L 290.7 30.701 L 290.7 38.701 L 262.7 38.701 L 262.7 63.001 L 295.2 63.001 L 295.2 71.201 Z M 358.4 68.201 L 349.5 72.401 L 340.8 53.401 A 30.586 30.586 0 0 0 338.209 48.827 Q 335.703 45.222 332.5 43.301 Q 328.145 40.687 321.664 40.35 A 37.847 37.847 0 0 0 319.7 40.301 L 318.2 40.301 L 318.2 71.201 L 308.7 71.201 L 308.7 1.401 Q 314 0.901 318.85 0.651 A 187.94 187.94 0 0 1 325.166 0.436 A 226.267 226.267 0 0 1 329.2 0.401 Q 342 0.401 348.45 5.601 A 17.414 17.414 0 0 1 353.08 11.135 Q 354.9 14.644 354.9 19.001 A 19.88 19.88 0 0 1 354.249 24.22 A 14.672 14.672 0 0 1 350.55 30.751 Q 346.2 35.201 338 37.401 A 23.656 23.656 0 0 1 341.429 39.263 A 20.427 20.427 0 0 1 342.8 40.251 Q 344.769 41.797 346.605 44.311 A 29.29 29.29 0 0 1 346.85 44.651 Q 348.8 47.401 350.8 51.801 L 358.4 68.201 Z M 9.5 71.201 L 0 71.201 L 0 1.201 L 41.5 1.201 L 41.5 9.401 L 9.5 9.401 L 9.5 30.801 L 36.2 30.801 L 36.2 38.601 L 9.5 38.601 L 9.5 71.201 Z M 221.7 71.201 L 212.2 71.201 L 212.2 9.601 L 190.7 9.601 L 190.7 1.201 L 243.2 1.201 L 243.2 9.601 L 221.7 9.601 L 221.7 71.201 Z M 70.908 71.643 A 36.51 36.51 0 0 0 78.5 72.401 A 38.35 38.35 0 0 0 83.662 72.064 A 30.074 30.074 0 0 0 92.4 69.551 Q 98.5 66.701 102.8 61.751 Q 107.1 56.801 109.35 50.201 Q 111.6 43.601 111.6 36.101 A 48.215 48.215 0 0 0 111.521 33.323 A 41.439 41.439 0 0 0 109.35 22.101 Q 107.1 15.601 102.8 10.601 Q 98.5 5.601 92.35 2.801 A 29.925 29.925 0 0 0 86.458 0.838 A 36.42 36.42 0 0 0 78.5 0.001 A 39.35 39.35 0 0 0 72.272 0.476 A 29.661 29.661 0 0 0 60.8 4.751 Q 53.4 9.501 49.45 17.651 A 37.989 37.989 0 0 0 46.615 25.764 A 46.182 46.182 0 0 0 45.5 36.101 A 48.913 48.913 0 0 0 45.535 37.961 A 42.769 42.769 0 0 0 47.75 50.201 A 39.376 39.376 0 0 0 48.189 51.423 A 34.353 34.353 0 0 0 54.25 61.751 Q 58.5 66.701 64.6 69.551 A 29.142 29.142 0 0 0 70.908 71.643 Z M 147.008 71.643 A 36.51 36.51 0 0 0 154.6 72.401 A 38.35 38.35 0 0 0 159.762 72.064 A 30.074 30.074 0 0 0 168.5 69.551 Q 174.6 66.701 178.9 61.751 Q 183.2 56.801 185.45 50.201 Q 187.7 43.601 187.7 36.101 A 48.215 48.215 0 0 0 187.621 33.323 A 41.439 41.439 0 0 0 185.45 22.101 Q 183.2 15.601 178.9 10.601 Q 174.6 5.601 168.45 2.801 A 29.925 29.925 0 0 0 162.558 0.838 A 36.42 36.42 0 0 0 154.6 0.001 A 39.35 39.35 0 0 0 148.372 0.476 A 29.661 29.661 0 0 0 136.9 4.751 Q 129.5 9.501 125.55 17.651 A 37.989 37.989 0 0 0 122.715 25.764 A 46.182 46.182 0 0 0 121.6 36.101 A 48.913 48.913 0 0 0 121.635 37.961 A 42.769 42.769 0 0 0 123.85 50.201 A 39.376 39.376 0 0 0 124.289 51.423 A 34.353 34.353 0 0 0 130.35 61.751 Q 134.6 66.701 140.7 69.551 A 29.142 29.142 0 0 0 147.008 71.643 Z M 78.5 64.201 A 26.517 26.517 0 0 0 84.448 63.566 A 19.316 19.316 0 0 0 91.4 60.501 A 22.47 22.47 0 0 0 98.725 51.63 A 27.252 27.252 0 0 0 99.25 50.451 A 34.108 34.108 0 0 0 101.572 41.522 A 43.503 43.503 0 0 0 101.9 36.101 Q 101.9 30.701 100.3 25.701 A 29.735 29.735 0 0 0 96.16 17.374 A 28.121 28.121 0 0 0 95.7 16.751 Q 92.7 12.801 88.35 10.501 A 19.921 19.921 0 0 0 80.933 8.319 A 24.578 24.578 0 0 0 78.5 8.201 A 24.086 24.086 0 0 0 72.008 9.041 A 19.545 19.545 0 0 0 65.95 11.901 A 23.148 23.148 0 0 0 58.349 21.027 A 27.785 27.785 0 0 0 57.95 21.901 A 32.793 32.793 0 0 0 55.496 31.088 A 41.257 41.257 0 0 0 55.2 36.101 Q 55.2 41.501 56.75 46.551 A 29.379 29.379 0 0 0 60.931 55.096 A 27.923 27.923 0 0 0 61.3 55.601 Q 64.3 59.601 68.65 61.901 A 19.921 19.921 0 0 0 76.067 64.082 A 24.578 24.578 0 0 0 78.5 64.201 Z M 154.6 64.201 A 26.517 26.517 0 0 0 160.548 63.566 A 19.316 19.316 0 0 0 167.5 60.501 A 22.47 22.47 0 0 0 174.825 51.63 A 27.252 27.252 0 0 0 175.35 50.451 A 34.108 34.108 0 0 0 177.672 41.522 A 43.503 43.503 0 0 0 178 36.101 Q 178 30.701 176.4 25.701 A 29.735 29.735 0 0 0 172.26 17.374 A 28.121 28.121 0 0 0 171.8 16.751 Q 168.8 12.801 164.45 10.501 A 19.921 19.921 0 0 0 157.033 8.319 A 24.578 24.578 0 0 0 154.6 8.201 A 24.086 24.086 0 0 0 148.108 9.041 A 19.545 19.545 0 0 0 142.05 11.901 A 23.148 23.148 0 0 0 134.449 21.027 A 27.785 27.785 0 0 0 134.05 21.901 A 32.793 32.793 0 0 0 131.596 31.088 A 41.257 41.257 0 0 0 131.3 36.101 Q 131.3 41.501 132.85 46.551 A 29.379 29.379 0 0 0 137.031 55.096 A 27.923 27.923 0 0 0 137.4 55.601 Q 140.4 59.601 144.75 61.901 A 19.921 19.921 0 0 0 152.167 64.082 A 24.578 24.578 0 0 0 154.6 64.201 Z M 318.2 8.801 L 318.2 32.301 L 329.2 32.301 A 26.489 26.489 0 0 0 334.123 31.869 Q 338.052 31.126 340.9 29.101 Q 345.4 25.901 345.4 19.901 A 9.811 9.811 0 0 0 342.127 12.436 A 13.272 13.272 0 0 0 341.2 11.651 A 13.923 13.923 0 0 0 336.836 9.429 Q 334.907 8.818 332.577 8.57 A 31.944 31.944 0 0 0 329.2 8.401 Q 326.026 8.401 323.462 8.488 A 118.974 118.974 0 0 0 323.1 8.501 Q 320.4 8.601 318.2 8.801 Z" vector-effect="non-scaling-stroke"/></g></svg>