<svg xmlns="http://www.w3.org/2000/svg" xmlns:xlink="http://www.w3.org/1999/xlink" version="1.1" width="256" height="256" viewBox="0 0 256 256" xml:space="preserve">

<defs>
</defs>
<g style="stroke: none; stroke-width: 0; stroke-dasharray: none; stroke-linecap: butt; stroke-linejoin: miter; stroke-miterlimit: 10; fill: #fff; fill-rule: nonzero; opacity: 1;" transform="translate(1.4065934065934016 1.4065934065934016) scale(2.81 2.81)" >
	<path d="M 3.256 90.001 c -1.098 0 -2.155 -0.605 -2.683 -1.653 c -0.745 -1.479 -0.148 -3.283 1.332 -4.027 L 80.071 45 L 1.905 5.681 c -1.48 -0.745 -2.077 -2.548 -1.332 -4.028 C 1.318 0.173 3.122 -0.423 4.601 0.32 l 83.493 42 c 1.014 0.51 1.652 1.546 1.652 2.68 s -0.639 2.171 -1.652 2.68 l -83.493 42 C 4.169 89.897 3.709 90.001 3.256 90.001 z" style="stroke: none; stroke-width: 1; stroke-dasharray: none; stroke-linecap: butt; stroke-linejoin: miter; stroke-miterlimit: 10; fill: #fff; fill-rule: nonzero; opacity: 1;" transform=" matrix(1 0 0 1 0 0) " stroke-linecap="round" />
</g>
</svg>